<svg xmlns="http://www.w3.org/2000/svg" xmlns:xlink="http://www.w3.org/1999/xlink" width="64" zoomAndPan="magnify" viewBox="0 0 48 30.000001" height="40" preserveAspectRatio="xMidYMid meet" version="1.0"><defs><g/><clipPath id="39088eef80"><path d="M 33 6 L 47.226562 6 L 47.226562 27 L 33 27 Z M 33 6 " clip-rule="nonzero"/></clipPath></defs><g fill="#ffffff" fill-opacity="1"><g transform="translate(0.774193, 20.65668)"><g><path d="M 12.609375 -12.625 C 12.609375 -12.289062 12.535156 -12.039062 12.390625 -11.875 C 12.253906 -11.707031 12.035156 -11.625 11.734375 -11.625 C 11.710938 -11.394531 11.660156 -11 11.578125 -10.4375 C 11.472656 -9.664062 11.414062 -9.234375 11.40625 -9.140625 C 10.425781 -1.867188 8.390625 1.765625 5.296875 1.765625 C 4.390625 1.765625 3.679688 1.503906 3.171875 0.984375 C 2.660156 0.472656 2.40625 -0.171875 2.40625 -0.953125 C 2.40625 -2.347656 2.992188 -3.578125 4.171875 -4.640625 C 5.359375 -5.710938 6.921875 -6.601562 8.859375 -7.3125 C 8.972656 -8.082031 9.0625 -8.773438 9.125 -9.390625 L 9.421875 -11.875 C 8.765625 -11.945312 8.148438 -11.984375 7.578125 -11.984375 C 6.054688 -11.984375 4.929688 -11.832031 4.203125 -11.53125 C 3.484375 -11.238281 3.125 -10.753906 3.125 -10.078125 C 3.125 -9.753906 3.234375 -9.398438 3.453125 -9.015625 C 3.515625 -8.910156 3.546875 -8.796875 3.546875 -8.671875 C 3.546875 -8.441406 3.425781 -8.234375 3.1875 -8.046875 C 2.957031 -7.867188 2.707031 -7.78125 2.4375 -7.78125 C 2.082031 -7.78125 1.8125 -7.925781 1.625 -8.21875 C 1.320312 -8.726562 1.171875 -9.316406 1.171875 -9.984375 C 1.171875 -12.617188 3.472656 -13.9375 8.078125 -13.9375 C 9.410156 -13.9375 10.609375 -13.804688 11.671875 -13.546875 C 12.296875 -13.390625 12.609375 -13.082031 12.609375 -12.625 Z M 5.515625 0 C 6.046875 0 6.582031 -0.40625 7.125 -1.21875 C 7.664062 -2.03125 8.140625 -3.453125 8.546875 -5.484375 C 5.867188 -4.304688 4.53125 -2.867188 4.53125 -1.171875 C 4.53125 -0.796875 4.613281 -0.503906 4.78125 -0.296875 C 4.957031 -0.0976562 5.203125 0 5.515625 0 Z M 5.515625 0 "/></g></g></g><g fill="#ffffff" fill-opacity="1"><g transform="translate(12.994951, 20.65668)"><g/></g></g><g fill="#ffffff" fill-opacity="1"><g transform="translate(17.353631, 20.65668)"><g><path d="M 9.609375 -5.671875 C 9.859375 -5.671875 10.046875 -5.59375 10.171875 -5.4375 C 10.304688 -5.289062 10.375 -5.109375 10.375 -4.890625 C 10.375 -4.609375 10.285156 -4.351562 10.109375 -4.125 C 9.929688 -3.90625 9.6875 -3.796875 9.375 -3.796875 L 6.6875 -3.796875 L 6.3125 -0.796875 C 6.269531 -0.503906 6.144531 -0.28125 5.9375 -0.125 C 5.738281 0.0195312 5.507812 0.09375 5.25 0.09375 C 5 0.09375 4.789062 0.0195312 4.625 -0.125 C 4.46875 -0.28125 4.40625 -0.503906 4.4375 -0.796875 L 4.796875 -3.796875 L 2.140625 -3.796875 C 1.890625 -3.796875 1.695312 -3.875 1.5625 -4.03125 C 1.425781 -4.195312 1.359375 -4.390625 1.359375 -4.609375 C 1.359375 -4.878906 1.445312 -5.125 1.625 -5.34375 C 1.8125 -5.5625 2.0625 -5.671875 2.375 -5.671875 L 5.046875 -5.671875 L 5.40625 -8.6875 C 5.445312 -8.957031 5.566406 -9.171875 5.765625 -9.328125 C 5.960938 -9.484375 6.1875 -9.5625 6.4375 -9.5625 C 6.6875 -9.5625 6.898438 -9.484375 7.078125 -9.328125 C 7.253906 -9.171875 7.320312 -8.957031 7.28125 -8.6875 L 6.921875 -5.671875 Z M 9.609375 -5.671875 "/></g></g></g><g fill="#ffffff" fill-opacity="1"><g transform="translate(28.867134, 20.65668)"><g/></g></g><g clip-path="url(#39088eef80)"><g fill="#ffffff" fill-opacity="1"><g transform="translate(33.225814, 20.65668)"><g><path d="M 14.9375 -3.6875 C 15 -3.707031 15.097656 -3.71875 15.234375 -3.71875 C 15.609375 -3.71875 15.796875 -3.476562 15.796875 -3 C 15.796875 -2.726562 15.738281 -2.503906 15.625 -2.328125 C 15.507812 -2.148438 15.332031 -2.035156 15.09375 -1.984375 C 14.09375 -1.804688 13.109375 -1.597656 12.140625 -1.359375 L 12.09375 -0.96875 C 11.78125 1.1875 11.164062 2.78125 10.25 3.8125 C 9.34375 4.851562 8.203125 5.375 6.828125 5.375 C 5.921875 5.375 5.21875 5.148438 4.71875 4.703125 C 4.21875 4.265625 3.96875 3.703125 3.96875 3.015625 C 3.96875 1.859375 4.484375 0.832031 5.515625 -0.0625 C 6.546875 -0.96875 8.109375 -1.765625 10.203125 -2.453125 L 10.53125 -4.765625 C 10.570312 -5.035156 10.625 -5.390625 10.6875 -5.828125 C 10.175781 -4.460938 9.519531 -3.445312 8.71875 -2.78125 C 7.914062 -2.113281 7.019531 -1.78125 6.03125 -1.78125 C 5.09375 -1.78125 4.375 -2.066406 3.875 -2.640625 C 3.382812 -3.210938 3.140625 -3.957031 3.140625 -4.875 C 3.140625 -5.28125 3.179688 -5.722656 3.265625 -6.203125 C 3.359375 -6.691406 3.5 -7.351562 3.6875 -8.1875 C 3.851562 -8.945312 3.972656 -9.550781 4.046875 -10 C 4.128906 -10.445312 4.171875 -10.847656 4.171875 -11.203125 C 4.171875 -11.734375 3.96875 -12 3.5625 -12 C 3.25 -12 2.875 -11.84375 2.4375 -11.53125 C 2.007812 -11.21875 1.550781 -10.734375 1.0625 -10.078125 C 0.914062 -9.867188 0.75 -9.765625 0.5625 -9.765625 C 0.40625 -9.765625 0.269531 -9.835938 0.15625 -9.984375 C 0.0390625 -10.140625 -0.015625 -10.3125 -0.015625 -10.5 C -0.015625 -10.832031 0.132812 -11.21875 0.4375 -11.65625 C 1.5625 -13.1875 2.875 -13.953125 4.375 -13.953125 C 5.039062 -13.953125 5.5625 -13.75 5.9375 -13.34375 C 6.320312 -12.9375 6.515625 -12.335938 6.515625 -11.546875 C 6.515625 -10.972656 6.460938 -10.390625 6.359375 -9.796875 C 6.253906 -9.203125 6.097656 -8.441406 5.890625 -7.515625 C 5.753906 -6.972656 5.65625 -6.53125 5.59375 -6.1875 C 5.53125 -5.851562 5.5 -5.578125 5.5 -5.359375 C 5.5 -4.804688 5.597656 -4.40625 5.796875 -4.15625 C 5.992188 -3.914062 6.335938 -3.796875 6.828125 -3.796875 C 7.421875 -3.796875 8.023438 -4.125 8.640625 -4.78125 C 9.265625 -5.4375 9.828125 -6.425781 10.328125 -7.75 C 10.828125 -9.070312 11.1875 -10.695312 11.40625 -12.625 C 11.457031 -13.101562 11.582031 -13.441406 11.78125 -13.640625 C 11.976562 -13.847656 12.265625 -13.953125 12.640625 -13.953125 C 13.398438 -13.953125 13.78125 -13.566406 13.78125 -12.796875 C 13.78125 -12.671875 13.773438 -12.566406 13.765625 -12.484375 C 13.535156 -10.847656 13.320312 -9.375 13.125 -8.0625 C 13.019531 -7.269531 12.90625 -6.457031 12.78125 -5.625 C 12.65625 -4.789062 12.53125 -3.945312 12.40625 -3.09375 C 13.207031 -3.3125 14.050781 -3.507812 14.9375 -3.6875 Z M 9.953125 -0.71875 C 7.296875 0.195312 5.96875 1.3125 5.96875 2.625 C 5.96875 2.9375 6.0625 3.191406 6.25 3.390625 C 6.445312 3.597656 6.722656 3.703125 7.078125 3.703125 C 8.597656 3.703125 9.550781 2.265625 9.9375 -0.609375 Z M 9.953125 -0.71875 "/></g></g></g></g></svg>